<svg xmlns="http://www.w3.org/2000/svg" width="140" height="99" fill="none" viewBox="0 0 140 99"><circle cx="72" cy="52" r="24" stroke="#fff" stroke-width="2"/><path stroke="#fff" stroke-width="2" d="M85 56C85 63.1797 79.1797 69 72 69C64.8203 69 59 63.1797 59 56"/><line x1="67" x2="67" y1="46" y2="54" stroke="#fff" stroke-width="2"/><line x1="78" x2="78" y1="46" y2="54" stroke="#fff" stroke-width="2"/><circle cx="54" cy="12" r="4" fill="#6130EE"/><circle cx="39" cy="91" r="8" fill="#6130EE"/><circle cx="117.5" cy="85.5" r="5.5" fill="#6130EE"/><circle cx="9.5" cy="11.5" r="9.5" fill="#6130EE"/><circle cx="109.5" cy="11.5" r="11.5" fill="#6130EE"/><path stroke="#fff" stroke-width="2" d="M118 48C118 50.3481 117.469 52.4244 116.661 53.8783C115.835 55.3661 114.853 56 114 56C113.147 56 112.165 55.3661 111.339 53.8783C110.531 52.4244 110 50.3481 110 48C110 45.6519 110.531 43.5756 111.339 42.1217C112.165 40.6339 113.147 40 114 40C114.853 40 115.835 40.6339 116.661 42.1217C117.469 43.5756 118 45.6519 118 48Z"/><path stroke="#fff" stroke-width="2" d="M131 40C135.418 40 139 44.0817 139 48.5V64.0568C139 64.8702 138.081 65.3433 137.419 64.8705L136.081 63.9152C135.734 63.6668 135.266 63.6668 134.919 63.9152L132.581 65.5848C132.234 65.8332 131.766 65.8332 131.419 65.5848L129.081 63.9152C128.734 63.6668 128.266 63.6668 127.919 63.9152L125.581 65.5848C125.234 65.8332 124.766 65.8332 124.419 65.5848L122.081 63.9152C121.734 63.6668 121.266 63.6668 120.919 63.9152L119.581 64.8705C118.919 65.3433 118 64.8702 118 64.0568V48.5"/><path stroke="#fff" stroke-width="2" d="M114 40L131.5 40"/><path stroke="#fff" stroke-width="2" d="M14 48C14 50.3481 13.4691 52.4244 12.6614 53.8783C11.8348 55.3661 10.8526 56 10 56C9.14736 56 8.16518 55.3661 7.33862 53.8783C6.53089 52.4244 6 50.3481 6 48C6 45.6519 6.53089 43.5756 7.33862 42.1217C8.16518 40.6339 9.14736 40 10 40C10.8526 40 11.8348 40.6339 12.6614 42.1217C13.4691 43.5756 14 45.6519 14 48Z"/><path stroke="#fff" stroke-width="2" d="M27 40C31.4183 40 35 44.0817 35 48.5V64.0568C35 64.8702 34.0806 65.3433 33.4188 64.8705L32.0812 63.9152C31.7335 63.6668 31.2665 63.6668 30.9188 63.9152L28.5812 65.5848C28.2335 65.8332 27.7665 65.8332 27.4188 65.5848L25.0812 63.9152C24.7335 63.6668 24.2665 63.6668 23.9188 63.9152L21.5812 65.5848C21.2335 65.8332 20.7665 65.8332 20.4188 65.5848L18.0812 63.9152C17.7335 63.6668 17.2665 63.6668 16.9188 63.9152L15.5812 64.8705C14.9194 65.3433 14 64.8702 14 64.0568V48.5"/><path stroke="#fff" stroke-width="2" d="M10 40L27.5 40"/></svg>