<svg xmlns="http://www.w3.org/2000/svg" width="181" height="102" fill="none" viewBox="0 0 181 102"><circle cx="86" cy="50" r="24" stroke="#fff" stroke-width="2"/><path stroke="#fff" stroke-width="2" d="M98.9998 50C98.9998 57.1797 93.1795 63 85.9998 63C78.8201 63 72.9998 57.1797 72.9998 50"/><path stroke="#fff" stroke-width="2" d="M83.9998 45C83.9998 46.6569 82.6567 48 80.9998 48C79.343 48 77.9998 46.6569 77.9998 45"/><path stroke="#fff" stroke-width="2" d="M93.9998 45C93.9998 46.6569 92.6567 48 90.9998 48C89.343 48 87.9998 46.6569 87.9998 45"/><line x1="137" x2="137" y1="65" y2="51" stroke="#fff" stroke-width="2"/><path stroke="#fff" stroke-width="2" d="M151 52C151 48.134 147.866 45 144 45C140.134 45 137 48.134 137 52"/><path stroke="#fff" stroke-width="2" d="M123 52C123 48.134 126.134 45 130 45C133.866 45 137 48.134 137 52"/><path stroke="#fff" stroke-width="2" d="M151 41.7925C151 38.0411 147.866 35 144 35C140.134 35 137 38.0411 137 41.7925V50"/><line x2="14" y1="-1" y2="-1" stroke="#fff" stroke-width="2" transform="matrix(-4.37114e-08 -1 -1 4.37114e-08 33.9998 65)"/><path stroke="#fff" stroke-width="2" d="M20.9998 52C20.9998 48.134 24.1338 45 27.9998 45C31.8658 45 34.9998 48.134 34.9998 52"/><path stroke="#fff" stroke-width="2" d="M48.9998 52C48.9998 48.134 45.8658 45 41.9998 45C38.1338 45 34.9998 48.134 34.9998 52"/><path stroke="#fff" stroke-width="2" d="M20.9998 41.7925C20.9998 38.0411 24.1338 35 27.9998 35C31.8658 35 34.9998 38.0411 34.9998 41.7925V50"/><rect width="19.799" height="19.799" x="14" y="74" fill="#FF755D" transform="rotate(45 14.0003 74)"/><rect width="19.799" height="19.799" x="125" fill="#FF755D" transform="rotate(45 125 0)"/><rect width="11.313" height="11.313" x="172.999" y="65" fill="#FF755D" transform="rotate(45 172.999 65)"/><rect width="12.728" height="12.728" x="116" y="79" fill="#FF755D" transform="rotate(45 116 79)"/><rect width="8.484" height="8.484" x="38" y="11.001" fill="#FF755D" transform="rotate(45 38.0003 11.001)"/></svg>